<svg xmlns="http://www.w3.org/2000/svg" xmlns:xlink="http://www.w3.org/1999/xlink" width="1920" zoomAndPan="magnify" viewBox="0 0 1440 809.999993" height="1080" preserveAspectRatio="xMidYMid meet" version="1.0"><defs><g/><clipPath id="b97a0fed48"><path d="M 531.75 314.25 L 607.832031 314.25 L 607.832031 402.8125 L 531.75 402.8125 Z M 531.75 314.25 " clip-rule="nonzero"/></clipPath><clipPath id="9049c8c96f"><path d="M 569.789062 314.25 L 607.832031 336.382812 L 607.832031 380.648438 L 569.789062 402.78125 L 531.75 380.648438 L 531.75 336.382812 Z M 569.789062 314.25 " clip-rule="nonzero"/></clipPath><clipPath id="b801daa1d0"><path d="M 531.75 314.25 L 607.828125 314.25 L 607.828125 402.75 L 531.75 402.75 Z M 531.75 314.25 " clip-rule="nonzero"/></clipPath><clipPath id="beb1b75cb6"><path d="M 569.789062 314.25 L 607.828125 336.382812 L 607.828125 380.644531 L 569.789062 402.773438 L 531.75 380.644531 L 531.75 336.382812 Z M 569.789062 314.25 " clip-rule="nonzero"/></clipPath><clipPath id="2ef0167d23"><path d="M 493.710938 380.234375 L 569.789062 380.234375 L 569.789062 468.796875 L 493.710938 468.796875 Z M 493.710938 380.234375 " clip-rule="nonzero"/></clipPath><clipPath id="1db8904d02"><path d="M 531.75 380.234375 L 569.789062 402.367188 L 569.789062 446.632812 L 531.75 468.765625 L 493.710938 446.632812 L 493.710938 402.367188 Z M 531.75 380.234375 " clip-rule="nonzero"/></clipPath><clipPath id="8a613ddb0e"><path d="M 493.710938 380.234375 L 569.785156 380.234375 L 569.785156 468.734375 L 493.710938 468.734375 Z M 493.710938 380.234375 " clip-rule="nonzero"/></clipPath><clipPath id="9b7795943b"><path d="M 531.75 380.234375 L 569.785156 402.363281 L 569.785156 446.625 L 531.75 468.757812 L 493.710938 446.625 L 493.710938 402.363281 Z M 531.75 380.234375 " clip-rule="nonzero"/></clipPath><clipPath id="061422989f"><path d="M 569.789062 380.234375 L 645.871094 380.234375 L 645.871094 468.796875 L 569.789062 468.796875 Z M 569.789062 380.234375 " clip-rule="nonzero"/></clipPath><clipPath id="aaa1fab609"><path d="M 607.832031 380.234375 L 645.871094 402.367188 L 645.871094 446.632812 L 607.832031 468.765625 L 569.789062 446.632812 L 569.789062 402.367188 Z M 607.832031 380.234375 " clip-rule="nonzero"/></clipPath><clipPath id="a69f4dbc13"><path d="M 569.792969 380.234375 L 645.867188 380.234375 L 645.867188 468.734375 L 569.792969 468.734375 Z M 569.792969 380.234375 " clip-rule="nonzero"/></clipPath><clipPath id="d9897a6fa5"><path d="M 607.828125 380.234375 L 645.867188 402.363281 L 645.867188 446.625 L 607.828125 468.757812 L 569.792969 446.625 L 569.792969 402.363281 Z M 607.828125 380.234375 " clip-rule="nonzero"/></clipPath></defs><g clip-path="url(#b97a0fed48)"><g clip-path="url(#9049c8c96f)"><path fill="#ff914d" d="M 531.75 314.25 L 607.832031 314.25 L 607.832031 402.8125 L 531.75 402.8125 Z M 531.75 314.25 " fill-opacity="1" fill-rule="nonzero"/></g></g><g clip-path="url(#b801daa1d0)"><g clip-path="url(#beb1b75cb6)"><path stroke-linecap="butt" transform="matrix(0.75, 0, 0, 0.75, 531.751611, 314.250004)" fill="none" stroke-linejoin="miter" d="M 50.716604 -0.00000558735 L 101.435356 29.510413 L 101.435356 88.526041 L 50.716604 118.03125 L -0.00214863 88.526041 L -0.00214863 29.510413 Z M 50.716604 -0.00000558735 " stroke="#000000" stroke-width="8" stroke-opacity="1" stroke-miterlimit="4"/></g></g><g fill="#ffffff" fill-opacity="1"><g transform="translate(657.972621, 385.854071)"><g><path d="M 16.46875 -21.96875 L 16.46875 0 L 3.984375 0 L 3.984375 -54.765625 L 16.46875 -54.765625 L 16.46875 -32.9375 L 34.125 -32.9375 L 34.125 -54.765625 L 46.609375 -54.765625 L 46.609375 0 L 34.125 0 L 34.125 -21.96875 Z M 16.46875 -21.96875 "/></g></g></g><g fill="#ffffff" fill-opacity="1"><g transform="translate(705.244775, 385.854071)"><g><path d="M 5.109375 -53.046875 C 6.484375 -54.421875 8.117188 -55.109375 10.015625 -55.109375 C 11.921875 -55.109375 13.5625 -54.421875 14.9375 -53.046875 C 16.3125 -51.671875 17 -50.03125 17 -48.125 C 17 -46.226562 16.3125 -44.59375 14.9375 -43.21875 C 13.5625 -41.84375 11.921875 -41.15625 10.015625 -41.15625 C 8.117188 -41.15625 6.484375 -41.84375 5.109375 -43.21875 C 3.734375 -44.59375 3.046875 -46.226562 3.046875 -48.125 C 3.046875 -50.03125 3.734375 -51.671875 5.109375 -53.046875 Z M 3.984375 -34.0625 L 3.984375 0 L 15.734375 0 L 15.734375 -34.0625 Z M 3.984375 -34.0625 "/></g></g></g><g fill="#ffffff" fill-opacity="1"><g transform="translate(721.97593, 385.854071)"><g><path d="M 12.609375 -34.0625 L 20.90625 -15.53125 L 29.21875 -34.0625 L 43.15625 -34.0625 L 24.890625 0 L 16.921875 0 L -1.328125 -34.0625 Z M 12.609375 -34.0625 "/></g></g></g><g fill="#ffffff" fill-opacity="1"><g transform="translate(760.484148, 385.854071)"><g><path d="M 38.4375 -15.40625 L 13.75 -15.40625 C 13.75 -13.007812 14.519531 -11.234375 16.0625 -10.078125 C 17.613281 -8.929688 19.296875 -8.359375 21.109375 -8.359375 C 23.015625 -8.359375 24.519531 -8.613281 25.625 -9.125 C 26.726562 -9.632812 27.988281 -10.644531 29.40625 -12.15625 L 37.90625 -7.90625 C 34.363281 -1.96875 28.476562 1 20.25 1 C 15.113281 1 10.707031 -0.757812 7.03125 -4.28125 C 3.363281 -7.800781 1.53125 -12.039062 1.53125 -17 C 1.53125 -21.957031 3.363281 -26.203125 7.03125 -29.734375 C 10.707031 -33.273438 15.113281 -35.046875 20.25 -35.046875 C 25.644531 -35.046875 30.035156 -33.484375 33.421875 -30.359375 C 36.804688 -27.242188 38.5 -22.789062 38.5 -17 C 38.5 -16.195312 38.476562 -15.664062 38.4375 -15.40625 Z M 14.078125 -21.90625 L 27.015625 -21.90625 C 26.753906 -23.675781 26.054688 -25.035156 24.921875 -25.984375 C 23.796875 -26.941406 22.347656 -27.421875 20.578125 -27.421875 C 18.628906 -27.421875 17.078125 -26.910156 15.921875 -25.890625 C 14.773438 -24.867188 14.160156 -23.539062 14.078125 -21.90625 Z M 14.078125 -21.90625 "/></g></g></g><g fill="#ffffff" fill-opacity="1"><g transform="translate(657.972621, 448.927819)"><g><path d="M 16.46875 -21.96875 L 16.46875 0 L 3.984375 0 L 3.984375 -54.765625 L 16.46875 -54.765625 L 16.46875 -32.9375 L 34.125 -32.9375 L 34.125 -54.765625 L 46.609375 -54.765625 L 46.609375 0 L 34.125 0 L 34.125 -21.96875 Z M 16.46875 -21.96875 "/></g></g></g><g fill="#ffffff" fill-opacity="1"><g transform="translate(705.244775, 448.927819)"><g><path d="M 15.078125 -34.0625 L 15.078125 -17.859375 C 15.078125 -14.492188 15.582031 -12.101562 16.59375 -10.6875 C 17.613281 -9.269531 19.335938 -8.5625 21.765625 -8.5625 C 24.203125 -8.5625 25.929688 -9.269531 26.953125 -10.6875 C 27.972656 -12.101562 28.484375 -14.492188 28.484375 -17.859375 L 28.484375 -34.0625 L 40.234375 -34.0625 L 40.234375 -15 C 40.234375 -9.332031 38.757812 -5.25 35.8125 -2.75 C 32.875 -0.25 28.195312 1 21.78125 1 C 15.363281 1 10.679688 -0.25 7.734375 -2.75 C 4.785156 -5.25 3.3125 -9.332031 3.3125 -15 L 3.3125 -34.0625 Z M 15.078125 -34.0625 "/></g></g></g><g fill="#ffffff" fill-opacity="1"><g transform="translate(745.479221, 448.927819)"><g><path d="M 39.03125 -29.796875 C 42.21875 -26.304688 43.8125 -22.035156 43.8125 -16.984375 C 43.8125 -11.941406 42.21875 -7.679688 39.03125 -4.203125 C 35.84375 -0.734375 31.796875 1 26.890625 1 C 22.367188 1 18.648438 -0.613281 15.734375 -3.84375 L 15.609375 -3.84375 L 15.609375 0 L 3.984375 0 L 3.984375 -57.09375 L 15.734375 -57.09375 L 15.734375 -30.8125 C 18.648438 -33.632812 22.367188 -35.046875 26.890625 -35.046875 C 31.796875 -35.046875 35.84375 -33.296875 39.03125 -29.796875 Z M 29.140625 -11.25 C 30.609375 -12.738281 31.34375 -14.65625 31.34375 -17 C 31.34375 -19.34375 30.578125 -21.265625 29.046875 -22.765625 C 27.515625 -24.273438 25.625 -25.03125 23.375 -25.03125 C 21.15625 -25.03125 19.28125 -24.273438 17.75 -22.765625 C 16.226562 -21.265625 15.46875 -19.34375 15.46875 -17 C 15.46875 -14.695312 16.207031 -12.789062 17.6875 -11.28125 C 19.175781 -9.78125 21.070312 -9.03125 23.375 -9.03125 C 25.757812 -9.03125 27.679688 -9.769531 29.140625 -11.25 Z M 29.140625 -11.25 "/></g></g></g><g clip-path="url(#2ef0167d23)"><g clip-path="url(#1db8904d02)"><path fill="#ffde59" d="M 493.710938 380.234375 L 569.789062 380.234375 L 569.789062 468.796875 L 493.710938 468.796875 Z M 493.710938 380.234375 " fill-opacity="1" fill-rule="nonzero"/></g></g><g clip-path="url(#8a613ddb0e)"><g clip-path="url(#9b7795943b)"><path stroke-linecap="butt" transform="matrix(0.75, 0, 0, 0.75, 493.710797, 380.234298)" fill="none" stroke-linejoin="miter" d="M 50.718939 0.000103105 L 101.432484 29.505313 L 101.432484 88.520941 L 50.718939 118.031359 L 0.000186821 88.520941 L 0.000186821 29.505313 Z M 50.718939 0.000103105 " stroke="#000000" stroke-width="6" stroke-opacity="1" stroke-miterlimit="4"/></g></g><g clip-path="url(#061422989f)"><g clip-path="url(#aaa1fab609)"><path fill="#ffbd59" d="M 569.789062 380.234375 L 645.871094 380.234375 L 645.871094 468.796875 L 569.789062 468.796875 Z M 569.789062 380.234375 " fill-opacity="1" fill-rule="nonzero"/></g></g><g clip-path="url(#a69f4dbc13)"><g clip-path="url(#d9897a6fa5)"><path stroke-linecap="butt" transform="matrix(0.75, 0, 0, 0.75, 569.79245, 380.234298)" fill="none" stroke-linejoin="miter" d="M 50.714236 0.000103105 L 101.432989 29.505313 L 101.432989 88.520941 L 50.714236 118.031359 L 0.000692258 88.520941 L 0.000692258 29.505313 Z M 50.714236 0.000103105 " stroke="#000000" stroke-width="6" stroke-opacity="1" stroke-miterlimit="4"/></g></g></svg>